<mxfile host="app.diagrams.net" modified="2020-12-12T00:03:09.124Z" agent="5.0 (Windows NT 10.0; Win64; x64) AppleWebKit/537.36 (KHTML, like Gecko) Chrome/87.0.4280.88 Safari/537.36" etag="OtFtgLwCIapTVLfA2kZH" version="14.0.1" type="github">
  <diagram id="PTIQZxKUdkh1WXVUb02D" name="Page-1">
    <mxGraphModel dx="2591" dy="882" grid="1" gridSize="10" guides="1" tooltips="1" connect="1" arrows="1" fold="1" page="1" pageScale="1" pageWidth="1169" pageHeight="827" math="0" shadow="0">
      <root>
        <mxCell id="0" />
        <mxCell id="1" parent="0" />
        <mxCell id="99L1UwTnQfkjRdn7Kg-e-1" value="core-system" style="whiteSpace=wrap;html=1;aspect=fixed;labelPosition=center;verticalLabelPosition=top;align=center;verticalAlign=bottom;fillColor=#dae8fc;strokeColor=#6c8ebf;" vertex="1" parent="1">
          <mxGeometry x="200" y="215" width="270" height="270" as="geometry" />
        </mxCell>
        <mxCell id="99L1UwTnQfkjRdn7Kg-e-3" value="web frontend" style="rounded=0;whiteSpace=wrap;html=1;fillColor=#e1d5e7;strokeColor=#9673a6;" vertex="1" parent="1">
          <mxGeometry x="230" y="425" width="90" height="50" as="geometry" />
        </mxCell>
        <mxCell id="99L1UwTnQfkjRdn7Kg-e-4" value="mobile frontend" style="rounded=0;whiteSpace=wrap;html=1;fillColor=#e1d5e7;strokeColor=#9673a6;" vertex="1" parent="1">
          <mxGeometry x="350" y="425" width="90" height="50" as="geometry" />
        </mxCell>
        <mxCell id="99L1UwTnQfkjRdn7Kg-e-8" style="edgeStyle=orthogonalEdgeStyle;rounded=0;orthogonalLoop=1;jettySize=auto;html=1;exitX=0;exitY=0.5;exitDx=0;exitDy=0;entryX=1;entryY=0.5;entryDx=0;entryDy=0;entryPerimeter=0;" edge="1" parent="1" source="99L1UwTnQfkjRdn7Kg-e-5" target="99L1UwTnQfkjRdn7Kg-e-6">
          <mxGeometry relative="1" as="geometry" />
        </mxCell>
        <mxCell id="99L1UwTnQfkjRdn7Kg-e-5" value="backend" style="rounded=0;whiteSpace=wrap;html=1;labelPosition=center;verticalLabelPosition=top;align=center;verticalAlign=bottom;fillColor=#e1d5e7;strokeColor=#9673a6;" vertex="1" parent="1">
          <mxGeometry x="310" y="245" width="155" height="140" as="geometry" />
        </mxCell>
        <mxCell id="99L1UwTnQfkjRdn7Kg-e-22" style="edgeStyle=orthogonalEdgeStyle;rounded=0;orthogonalLoop=1;jettySize=auto;html=1;exitX=0;exitY=0.5;exitDx=0;exitDy=0;exitPerimeter=0;entryX=1;entryY=0.5;entryDx=0;entryDy=0;" edge="1" parent="1" source="99L1UwTnQfkjRdn7Kg-e-6" target="99L1UwTnQfkjRdn7Kg-e-21">
          <mxGeometry relative="1" as="geometry" />
        </mxCell>
        <mxCell id="99L1UwTnQfkjRdn7Kg-e-6" value="DB" style="shape=cylinder3;whiteSpace=wrap;html=1;boundedLbl=1;backgroundOutline=1;size=15;fillColor=#d5e8d4;strokeColor=#82b366;" vertex="1" parent="1">
          <mxGeometry x="220" y="245" width="60" height="80" as="geometry" />
        </mxCell>
        <mxCell id="99L1UwTnQfkjRdn7Kg-e-7" value="core-game-api" style="rounded=0;whiteSpace=wrap;html=1;fillColor=#ffe6cc;strokeColor=#d79b00;" vertex="1" parent="1">
          <mxGeometry x="370" y="255" width="85" height="40" as="geometry" />
        </mxCell>
        <mxCell id="99L1UwTnQfkjRdn7Kg-e-10" style="edgeStyle=orthogonalEdgeStyle;rounded=0;orthogonalLoop=1;jettySize=auto;html=1;exitX=0.5;exitY=1;exitDx=0;exitDy=0;entryX=0.5;entryY=0;entryDx=0;entryDy=0;" edge="1" parent="1" source="99L1UwTnQfkjRdn7Kg-e-9" target="99L1UwTnQfkjRdn7Kg-e-3">
          <mxGeometry relative="1" as="geometry" />
        </mxCell>
        <mxCell id="99L1UwTnQfkjRdn7Kg-e-11" style="edgeStyle=orthogonalEdgeStyle;rounded=0;orthogonalLoop=1;jettySize=auto;html=1;exitX=0.5;exitY=1;exitDx=0;exitDy=0;entryX=0.5;entryY=0;entryDx=0;entryDy=0;" edge="1" parent="1" source="99L1UwTnQfkjRdn7Kg-e-9" target="99L1UwTnQfkjRdn7Kg-e-4">
          <mxGeometry relative="1" as="geometry" />
        </mxCell>
        <mxCell id="99L1UwTnQfkjRdn7Kg-e-9" value="core-ui-api" style="rounded=0;whiteSpace=wrap;html=1;fillColor=#ffe6cc;strokeColor=#d79b00;" vertex="1" parent="1">
          <mxGeometry x="320" y="345" width="80" height="35" as="geometry" />
        </mxCell>
        <mxCell id="99L1UwTnQfkjRdn7Kg-e-12" value="game-addon" style="whiteSpace=wrap;html=1;aspect=fixed;labelPosition=center;verticalLabelPosition=top;align=center;verticalAlign=bottom;fillColor=#dae8fc;strokeColor=#6c8ebf;" vertex="1" parent="1">
          <mxGeometry x="610" y="220" width="260" height="260" as="geometry" />
        </mxCell>
        <mxCell id="99L1UwTnQfkjRdn7Kg-e-20" style="edgeStyle=orthogonalEdgeStyle;rounded=0;orthogonalLoop=1;jettySize=auto;html=1;exitX=1;exitY=0.5;exitDx=0;exitDy=0;exitPerimeter=0;entryX=0;entryY=0.5;entryDx=0;entryDy=0;" edge="1" parent="1" source="99L1UwTnQfkjRdn7Kg-e-13" target="99L1UwTnQfkjRdn7Kg-e-19">
          <mxGeometry relative="1" as="geometry" />
        </mxCell>
        <mxCell id="99L1UwTnQfkjRdn7Kg-e-13" value="DB" style="shape=cylinder3;whiteSpace=wrap;html=1;boundedLbl=1;backgroundOutline=1;size=15;fillColor=#d5e8d4;strokeColor=#82b366;" vertex="1" parent="1">
          <mxGeometry x="800" y="285" width="60" height="80" as="geometry" />
        </mxCell>
        <mxCell id="99L1UwTnQfkjRdn7Kg-e-14" value="Rule Set" style="label;whiteSpace=wrap;html=1;image=img/clipart/Gear_128x128.png;fillColor=#ffe6cc;strokeColor=#d79b00;fontStyle=0" vertex="1" parent="1">
          <mxGeometry x="750" y="235" width="110" height="20" as="geometry" />
        </mxCell>
        <mxCell id="99L1UwTnQfkjRdn7Kg-e-16" style="edgeStyle=orthogonalEdgeStyle;rounded=0;orthogonalLoop=1;jettySize=auto;html=1;exitX=0;exitY=0.5;exitDx=0;exitDy=0;entryX=1;entryY=0.5;entryDx=0;entryDy=0;" edge="1" parent="1" source="99L1UwTnQfkjRdn7Kg-e-15" target="99L1UwTnQfkjRdn7Kg-e-7">
          <mxGeometry relative="1" as="geometry" />
        </mxCell>
        <mxCell id="99L1UwTnQfkjRdn7Kg-e-15" value="core-game-api" style="rounded=0;whiteSpace=wrap;html=1;fillColor=#ffe6cc;strokeColor=#d79b00;" vertex="1" parent="1">
          <mxGeometry x="630" y="255" width="85" height="40" as="geometry" />
        </mxCell>
        <mxCell id="99L1UwTnQfkjRdn7Kg-e-18" value="game-ui" style="rounded=0;whiteSpace=wrap;html=1;fillColor=#e1d5e7;strokeColor=#9673a6;" vertex="1" parent="1">
          <mxGeometry x="630" y="405" width="220" height="60" as="geometry" />
        </mxCell>
        <mxCell id="99L1UwTnQfkjRdn7Kg-e-19" value="List of rule variants&lt;br&gt;" style="text;html=1;fillColor=none;align=center;verticalAlign=middle;whiteSpace=wrap;rounded=0;strokeColor=#000000;" vertex="1" parent="1">
          <mxGeometry x="930" y="200" width="190" height="90" as="geometry" />
        </mxCell>
        <mxCell id="99L1UwTnQfkjRdn7Kg-e-21" value="List of game endpoints&lt;br&gt;Users&lt;br&gt;Salons&lt;br&gt;Game Instances" style="text;html=1;fillColor=none;align=center;verticalAlign=middle;whiteSpace=wrap;rounded=0;strokeColor=#000000;" vertex="1" parent="1">
          <mxGeometry x="-30" y="180" width="190" height="90" as="geometry" />
        </mxCell>
      </root>
    </mxGraphModel>
  </diagram>
</mxfile>
